<svg width="66" height="66" viewBox="0 0 66 66" fill="none" xmlns="http://www.w3.org/2000/svg">
<rect width="66" height="66" rx="12" fill="#D6CDC2"/>
<path d="M28.2765 33.0001C28.2765 30.3922 30.3913 28.2775 33.0008 28.2775C35.6103 28.2775 37.7262 30.3922 37.7262 33.0001C37.7262 35.608 35.6103 37.7227 33.0008 37.7227C30.3913 37.7227 28.2765 35.608 28.2765 33.0001ZM25.7221 33.0001C25.7221 37.0178 28.9807 40.2745 33.0008 40.2745C37.0209 40.2745 40.2796 37.0178 40.2796 33.0001C40.2796 28.9825 37.0209 25.7257 33.0008 25.7257C28.9807 25.7257 25.7221 28.9825 25.7221 33.0001ZM38.8667 25.4373C38.8666 25.7735 38.9662 26.1022 39.153 26.3819C39.3398 26.6615 39.6054 26.8795 39.9161 27.0083C40.2269 27.1371 40.5689 27.1709 40.8989 27.1054C41.2289 27.04 41.5321 26.8782 41.77 26.6405C42.008 26.4029 42.1702 26.1 42.2359 25.7703C42.3017 25.4406 42.2681 25.0987 42.1395 24.788C42.0109 24.4774 41.793 24.2118 41.5133 24.0249C41.2337 23.838 40.9048 23.7381 40.5684 23.738H40.5677C40.1168 23.7382 39.6843 23.9173 39.3654 24.2359C39.0465 24.5545 38.8671 24.9866 38.8667 25.4373ZM27.2741 44.5314C25.892 44.4685 25.1409 44.2385 24.6417 44.0441C23.9799 43.7866 23.5077 43.4799 23.0112 42.9844C22.5147 42.4889 22.2074 42.0175 21.9509 41.3561C21.7563 40.8574 21.5261 40.1064 21.4633 38.7253C21.3946 37.232 21.3808 36.7834 21.3808 33.0002C21.3808 29.2171 21.3957 28.7697 21.4633 27.2752C21.5262 25.894 21.7581 25.1446 21.9509 24.6444C22.2085 23.983 22.5154 23.5111 23.0112 23.0149C23.507 22.5187 23.9787 22.2116 24.6417 21.9553C25.1406 21.7608 25.892 21.5307 27.2741 21.4679C28.7682 21.3992 29.2171 21.3855 33.0008 21.3855C36.7845 21.3855 37.2338 21.4004 38.7293 21.4679C40.1113 21.5308 40.8612 21.7626 41.3616 21.9553C42.0235 22.2116 42.4957 22.5194 42.9921 23.0149C43.4886 23.5104 43.7948 23.983 44.0524 24.6444C44.247 25.1431 44.4772 25.894 44.54 27.2752C44.6088 28.7697 44.6225 29.2171 44.6225 33.0002C44.6225 36.7834 44.6088 37.2307 44.54 38.7253C44.4771 40.1064 44.2458 40.8572 44.0524 41.3561C43.7948 42.0175 43.4879 42.4894 42.9921 42.9844C42.4963 43.4795 42.0235 43.7866 41.3616 44.0441C40.8627 44.2386 40.1113 44.4686 38.7293 44.5314C37.2351 44.6001 36.7863 44.6138 33.0008 44.6138C29.2154 44.6138 28.7678 44.6001 27.2741 44.5314ZM27.1567 18.9193C25.6477 18.988 24.6165 19.2271 23.716 19.5773C22.7834 19.9389 21.9939 20.4241 21.205 21.2113C20.416 21.9985 19.9318 22.7888 19.5699 23.7209C19.2195 24.6214 18.9802 25.6514 18.9115 27.1595C18.8417 28.67 18.8257 29.1529 18.8257 33.0001C18.8257 36.8473 18.8417 37.3302 18.9115 38.8407C18.9802 40.349 19.2195 41.3788 19.5699 42.2794C19.9318 43.2109 20.4161 44.002 21.205 44.7889C21.9938 45.5758 22.7834 46.0603 23.716 46.4229C24.6182 46.7731 25.6477 47.0123 27.1567 47.081C28.6689 47.1496 29.1513 47.1668 33.0008 47.1668C36.8503 47.1668 37.3335 47.1508 38.8449 47.081C40.3541 47.0123 41.3845 46.7731 42.2856 46.4229C43.2177 46.0603 44.0077 45.5761 44.7967 44.7889C45.5856 44.0017 46.0688 43.2109 46.4317 42.2794C46.7821 41.3788 47.0225 40.3489 47.0901 38.8407C47.1588 37.3291 47.1748 36.8473 47.1748 33.0001C47.1748 29.1529 47.1588 28.67 47.0901 27.1595C47.0214 25.6513 46.7821 24.6208 46.4317 23.7209C46.0688 22.7894 45.5844 21.9998 44.7967 21.2113C44.009 20.4229 43.2177 19.9389 42.2868 19.5773C41.3846 19.2271 40.354 18.9868 38.8461 18.9193C37.3347 18.8506 36.8515 18.8335 33.0019 18.8335C29.1524 18.8335 28.6689 18.8495 27.1567 18.9193Z" fill="#0F0F0F"/>
<path d="M28.2765 33.0001C28.2765 30.3922 30.3913 28.2775 33.0008 28.2775C35.6103 28.2775 37.7262 30.3922 37.7262 33.0001C37.7262 35.608 35.6103 37.7227 33.0008 37.7227C30.3913 37.7227 28.2765 35.608 28.2765 33.0001ZM25.7221 33.0001C25.7221 37.0178 28.9807 40.2745 33.0008 40.2745C37.0209 40.2745 40.2796 37.0178 40.2796 33.0001C40.2796 28.9825 37.0209 25.7257 33.0008 25.7257C28.9807 25.7257 25.7221 28.9825 25.7221 33.0001ZM38.8667 25.4373C38.8666 25.7735 38.9662 26.1022 39.153 26.3819C39.3398 26.6615 39.6054 26.8795 39.9161 27.0083C40.2269 27.1371 40.5689 27.1709 40.8989 27.1054C41.2289 27.04 41.5321 26.8782 41.77 26.6405C42.008 26.4029 42.1702 26.1 42.2359 25.7703C42.3017 25.4406 42.2681 25.0987 42.1395 24.788C42.0109 24.4774 41.793 24.2118 41.5133 24.0249C41.2337 23.838 40.9048 23.7381 40.5684 23.738H40.5677C40.1168 23.7382 39.6843 23.9173 39.3654 24.2359C39.0465 24.5545 38.8671 24.9866 38.8667 25.4373ZM27.2741 44.5314C25.892 44.4685 25.1409 44.2385 24.6417 44.0441C23.9799 43.7866 23.5077 43.4799 23.0112 42.9844C22.5147 42.4889 22.2074 42.0175 21.9509 41.3561C21.7563 40.8574 21.5261 40.1064 21.4633 38.7253C21.3946 37.232 21.3808 36.7834 21.3808 33.0002C21.3808 29.2171 21.3957 28.7697 21.4633 27.2752C21.5262 25.894 21.7581 25.1446 21.9509 24.6444C22.2085 23.983 22.5154 23.5111 23.0112 23.0149C23.507 22.5187 23.9787 22.2116 24.6417 21.9553C25.1406 21.7608 25.892 21.5307 27.2741 21.4679C28.7682 21.3992 29.2171 21.3855 33.0008 21.3855C36.7845 21.3855 37.2338 21.4004 38.7293 21.4679C40.1113 21.5308 40.8612 21.7626 41.3616 21.9553C42.0235 22.2116 42.4957 22.5194 42.9921 23.0149C43.4886 23.5104 43.7948 23.983 44.0524 24.6444C44.247 25.1431 44.4772 25.894 44.54 27.2752C44.6088 28.7697 44.6225 29.2171 44.6225 33.0002C44.6225 36.7834 44.6088 37.2307 44.54 38.7253C44.4771 40.1064 44.2458 40.8572 44.0524 41.3561C43.7948 42.0175 43.4879 42.4894 42.9921 42.9844C42.4963 43.4795 42.0235 43.7866 41.3616 44.0441C40.8627 44.2386 40.1113 44.4686 38.7293 44.5314C37.2351 44.6001 36.7863 44.6138 33.0008 44.6138C29.2154 44.6138 28.7678 44.6001 27.2741 44.5314ZM27.1567 18.9193C25.6477 18.988 24.6165 19.2271 23.716 19.5773C22.7834 19.9389 21.9939 20.4241 21.205 21.2113C20.416 21.9985 19.9318 22.7888 19.5699 23.7209C19.2195 24.6214 18.9802 25.6514 18.9115 27.1595C18.8417 28.67 18.8257 29.1529 18.8257 33.0001C18.8257 36.8473 18.8417 37.3302 18.9115 38.8407C18.9802 40.349 19.2195 41.3788 19.5699 42.2794C19.9318 43.2109 20.4161 44.002 21.205 44.7889C21.9938 45.5758 22.7834 46.0603 23.716 46.4229C24.6182 46.7731 25.6477 47.0123 27.1567 47.081C28.6689 47.1496 29.1513 47.1668 33.0008 47.1668C36.8503 47.1668 37.3335 47.1508 38.8449 47.081C40.3541 47.0123 41.3845 46.7731 42.2856 46.4229C43.2177 46.0603 44.0077 45.5761 44.7967 44.7889C45.5856 44.0017 46.0688 43.2109 46.4317 42.2794C46.7821 41.3788 47.0225 40.3489 47.0901 38.8407C47.1588 37.3291 47.1748 36.8473 47.1748 33.0001C47.1748 29.1529 47.1588 28.67 47.0901 27.1595C47.0214 25.6513 46.7821 24.6208 46.4317 23.7209C46.0688 22.7894 45.5844 21.9998 44.7967 21.2113C44.009 20.4229 43.2177 19.9389 42.2868 19.5773C41.3846 19.2271 40.354 18.9868 38.8461 18.9193C37.3347 18.8506 36.8515 18.8335 33.0019 18.8335C29.1524 18.8335 28.6689 18.8495 27.1567 18.9193Z" fill="#0F0F0F"/>
</svg>
