<svg width="68" height="66" viewBox="0 0 68 66" fill="none" xmlns="http://www.w3.org/2000/svg">
<rect width="67.4783" height="66" rx="12" fill="#D6CDC2"/>
<path d="M33.6016 48.5837C24.9964 48.5837 18 41.5995 18 33.0064C18 24.4012 24.9964 17.417 33.6016 17.417C42.2069 17.417 49.2033 24.4012 49.2033 32.9942C49.2033 41.5873 42.2069 48.5837 33.6016 48.5837ZM46.7533 35.1273C46.3023 34.981 42.6335 33.8962 38.4528 34.5544C40.1958 39.3324 40.9027 43.2328 41.0368 44.0373C44.0352 42.0261 46.1683 38.8327 46.7533 35.1273ZM38.8062 45.2683C38.6112 44.0982 37.8311 40.0272 35.9663 35.176C35.9419 35.1882 35.9053 35.2004 35.8809 35.2004C28.3605 37.821 25.6667 43.0256 25.423 43.5132C27.6779 45.2683 30.5179 46.3166 33.6016 46.3166C35.4421 46.3288 37.2095 45.9509 38.8062 45.2683ZM23.7043 41.9164C24.0091 41.4045 27.6657 35.3589 34.5402 33.1283C34.7108 33.0674 34.8936 33.0186 35.0643 32.9699C34.7352 32.2142 34.3695 31.4585 33.9795 30.7149C27.3244 32.7017 20.8644 32.6164 20.2793 32.6042C20.2793 32.7383 20.2671 32.8724 20.2671 33.0064C20.2793 36.4315 21.5713 39.5518 23.7043 41.9164ZM20.5596 30.2883C21.1569 30.3005 26.6418 30.3249 32.8825 28.6672C30.6763 24.7424 28.2873 21.4515 27.946 20.9761C24.2041 22.7313 21.425 26.1685 20.5596 30.2883ZM30.4813 20.0741C30.847 20.5617 33.2725 23.8527 35.4543 27.8628C40.1958 26.0832 42.1947 23.4017 42.4385 23.0604C40.0861 20.9761 36.9901 19.7085 33.6016 19.7085C32.529 19.7085 31.4808 19.8426 30.4813 20.0741ZM43.9133 24.5962C43.633 24.974 41.4024 27.8384 36.4782 29.8495C36.7829 30.4834 37.0876 31.1294 37.368 31.7754C37.4655 32.007 37.563 32.2385 37.6605 32.4579C42.0972 31.8973 46.4974 32.7992 46.9361 32.8845C46.8996 29.752 45.7782 26.8633 43.9133 24.5962Z" fill="#0F0F0F"/>
</svg>
