<svg width="790" height="147" viewBox="0 0 790 147" fill="none" xmlns="http://www.w3.org/2000/svg">
<path d="M669.169 114.714V39.159H689.678V114.714H669.169ZM718.484 114.714V70.1319C718.484 65.7519 717.075 62.3626 714.257 59.964C711.544 57.4612 708.152 56.2097 704.081 56.2097C701.368 56.2097 698.915 56.7833 696.723 57.9304C694.531 58.9733 692.809 60.5376 691.557 62.6233C690.304 64.709 689.678 67.2119 689.678 70.1319L681.694 66.2212C681.694 60.3812 682.946 55.3233 685.451 51.0476C688.06 46.7719 691.557 43.4869 695.94 41.1926C700.324 38.794 705.281 37.5947 710.813 37.5947C716.032 37.5947 720.781 38.794 725.06 41.1926C729.339 43.4869 732.731 46.7719 735.236 51.0476C737.741 55.219 738.993 60.2769 738.993 66.2212V114.714H718.484ZM767.8 114.714V70.1319C767.8 65.7519 766.391 62.3626 763.573 59.964C760.859 57.4612 757.467 56.2097 753.396 56.2097C750.787 56.2097 748.334 56.7833 746.038 57.9304C743.847 58.9733 742.124 60.5376 740.872 62.6233C739.619 64.709 738.993 67.2119 738.993 70.1319L727.252 67.3162C727.669 61.2676 729.287 56.0533 732.105 51.6733C734.923 47.189 738.628 43.7476 743.22 41.349C747.813 38.8462 752.927 37.5947 758.563 37.5947C764.199 37.5947 769.261 38.794 773.749 41.1926C778.237 43.4869 781.785 46.824 784.395 51.204C787.004 55.584 788.309 60.7983 788.309 66.8469V114.714H767.8Z" fill="white"/>
<path d="M615.574 116.279C607.955 116.279 601.067 114.558 594.909 111.117C588.855 107.571 584.002 102.826 580.349 96.8818C576.801 90.8333 575.026 84.1068 575.026 76.7025C575.026 69.2982 576.801 62.6761 580.349 56.8361C583.898 50.8918 588.751 46.199 594.909 42.7575C601.067 39.2118 607.903 37.439 615.418 37.439C623.141 37.439 630.03 39.2118 636.083 42.7575C642.241 46.199 647.094 50.8918 650.643 56.8361C654.192 62.6761 655.966 69.2982 655.966 76.7025C655.966 84.1068 654.192 90.8333 650.643 96.8818C647.094 102.826 642.241 107.571 636.083 111.117C630.03 114.558 623.193 116.279 615.574 116.279ZM615.418 97.1947C619.279 97.1947 622.672 96.3604 625.594 94.6918C628.621 92.919 630.917 90.5204 632.482 87.4961C634.152 84.3675 634.987 80.8218 634.987 76.859C634.987 72.8961 634.152 69.4025 632.482 66.3783C630.812 63.354 628.516 61.0075 625.594 59.339C622.672 57.5661 619.279 56.6797 615.418 56.6797C611.66 56.6797 608.321 57.5661 605.398 59.339C602.476 61.0075 600.18 63.354 598.51 66.3783C596.84 69.4025 596.005 72.8961 596.005 76.859C596.005 80.8218 596.84 84.3675 598.51 87.4961C600.18 90.5204 602.476 92.919 605.398 94.6918C608.321 96.3604 611.66 97.1947 615.418 97.1947Z" fill="white"/>
<path d="M526.441 116.279C518.822 116.279 511.934 114.558 505.776 111.117C499.722 107.571 494.869 102.826 491.216 96.8818C487.668 90.8333 485.893 84.1068 485.893 76.7025C485.893 69.2982 487.668 62.6761 491.216 56.8361C494.765 50.8918 499.618 46.199 505.776 42.7575C511.934 39.2118 518.77 37.439 526.285 37.439C534.008 37.439 540.897 39.2118 546.95 42.7575C553.108 46.199 557.961 50.8918 561.51 56.8361C565.058 62.6761 566.833 69.2982 566.833 76.7025C566.833 84.1068 565.058 90.8333 561.51 96.8818C557.961 102.826 553.108 107.571 546.95 111.117C540.897 114.558 534.06 116.279 526.441 116.279ZM526.285 97.1947C530.146 97.1947 533.538 96.3604 536.461 94.6918C539.488 92.919 541.784 90.5204 543.349 87.4961C545.019 84.3675 545.854 80.8218 545.854 76.859C545.854 72.8961 545.019 69.4025 543.349 66.3783C541.679 63.354 539.383 61.0075 536.461 59.339C533.538 57.5661 530.146 56.6797 526.285 56.6797C522.527 56.6797 519.187 57.5661 516.265 59.339C513.343 61.0075 511.047 63.354 509.377 66.3783C507.707 69.4025 506.872 72.8961 506.872 76.859C506.872 80.8218 507.707 84.3675 509.377 87.4961C511.047 90.5204 513.343 92.919 516.265 94.6918C519.187 96.3604 522.527 97.1947 526.285 97.1947Z" fill="white"/>
<path d="M408.09 114.714V4.74512H429.381V114.714H408.09ZM423.745 114.714V95.7865H479.792V114.714H423.745Z" fill="white"/>
<path d="M373.816 116.278C370.059 116.278 366.98 115.027 364.579 112.524C362.179 110.021 360.979 106.945 360.979 103.295C360.979 99.6446 362.179 96.5682 364.579 94.0653C366.98 91.5625 370.059 90.311 373.816 90.311C377.469 90.311 380.496 91.5625 382.896 94.0653C385.297 96.5682 386.497 99.6446 386.497 103.295C386.497 106.945 385.297 110.021 382.896 112.524C380.496 115.027 377.469 116.278 373.816 116.278Z" fill="#B8A893"/>
<path d="M311.191 116.279C303.259 116.279 296.214 114.61 290.056 111.273C283.898 107.832 278.993 103.139 275.34 97.1947C271.791 91.2504 270.017 84.4718 270.017 76.859C270.017 69.3504 271.739 62.6761 275.183 56.8361C278.732 50.8918 283.533 46.199 289.586 42.7575C295.64 39.2118 302.372 37.439 309.782 37.439C317.088 37.439 323.507 39.1075 329.038 42.4447C334.674 45.6775 339.058 50.1618 342.189 55.8975C345.425 61.529 347.042 67.9425 347.042 75.1383C347.042 76.494 346.938 77.9018 346.729 79.3618C346.625 80.7175 346.364 82.2818 345.947 84.0547L282.385 84.2111V68.8811L336.397 68.7247L328.099 75.1383C327.89 70.654 327.055 66.8997 325.594 63.8754C324.237 60.8511 322.202 58.5568 319.489 56.9925C316.879 55.324 313.644 54.4897 309.782 54.4897C305.712 54.4897 302.163 55.4283 299.136 57.3054C296.109 59.0783 293.761 61.6332 292.091 64.9704C290.526 68.2032 289.743 72.0618 289.743 76.5461C289.743 81.1347 290.578 85.1497 292.248 88.5911C294.022 91.9282 296.527 94.5354 299.762 96.4125C302.998 98.1854 306.755 99.0718 311.034 99.0718C314.896 99.0718 318.393 98.4461 321.524 97.1947C324.655 95.839 327.369 93.8575 329.665 91.2504L341.72 103.295C338.067 107.571 333.579 110.804 328.256 112.994C323.037 115.184 317.349 116.279 311.191 116.279Z" fill="white"/>
<path d="M236.346 114.715V1.6167H256.855V114.715H236.346Z" fill="white"/>
<path d="M179.571 115.34L147.947 39.1592H170.178L191.156 97.3506H183.642L205.403 39.1592H227.791L194.131 115.183L179.571 115.34ZM158.593 146.313L181.606 97.6635L194.131 115.183L180.354 146.313H158.593Z" fill="white"/>
<path d="M106.041 114.714V7.7168H126.55V114.714H106.041ZM88.3503 57.1482V39.1589H144.241V57.1482H88.3503Z" fill="white"/>
<path d="M39.9219 116.278C31.0503 116.278 23.4313 114.766 17.0646 111.742C10.8024 108.718 5.11417 104.181 0 98.1325L14.0901 84.0539C17.3256 88.3296 21.0829 91.6668 25.3621 94.0654C29.6413 96.3597 34.8599 97.5068 41.0177 97.5068C46.5494 97.5068 50.933 96.4118 54.1685 94.2218C57.5083 92.0318 59.1783 89.0075 59.1783 85.1489C59.1783 81.8118 58.2389 79.1004 56.3603 77.0146C54.4816 74.9289 51.9767 73.1561 48.8456 71.6961C45.8188 70.2361 42.4268 68.9325 38.6694 67.7854C35.0164 66.5339 31.3113 65.1261 27.5539 63.5618C23.9009 61.9975 20.5089 60.0682 17.3777 57.7739C14.351 55.3754 11.8983 52.3511 10.0196 48.7011C8.14093 44.9468 7.20159 40.2539 7.20159 34.6225C7.20159 27.9482 8.81934 22.2646 12.0548 17.5718C15.2903 12.8789 19.7261 9.28107 25.3621 6.77821C30.9981 4.27535 37.3648 3.02393 44.462 3.02393C51.9767 3.02393 58.7608 4.43178 64.8143 7.2475C70.8678 10.0632 75.8254 13.7132 79.6872 18.1975L65.5971 32.2761C62.3616 28.7304 59.0217 26.1232 55.5775 24.4546C52.2376 22.7861 48.4281 21.9518 44.1489 21.9518C39.2434 21.9518 35.3817 22.8904 32.5637 24.7675C29.7457 26.6446 28.3367 29.3561 28.3367 32.9018C28.3367 35.9261 29.276 38.3768 31.1547 40.2539C33.0334 42.1311 35.4861 43.7475 38.5128 45.1032C41.644 46.4589 45.036 47.7625 48.689 49.0139C52.4464 50.2654 56.1515 51.6732 59.8045 53.2375C63.5619 54.8018 66.9539 56.8354 69.9807 59.3382C73.1118 61.8411 75.6167 65.0739 77.4954 69.0368C79.374 72.8954 80.3134 77.6925 80.3134 83.4282C80.3134 93.6482 76.7126 101.678 69.511 107.518C62.3094 113.358 52.4464 116.278 39.9219 116.278Z" fill="white"/>
</svg>
