<svg width="152" height="29" viewBox="0 0 152 29" fill="none" xmlns="http://www.w3.org/2000/svg">
<path d="M128.229 22V7.50996H132.159V22H128.229ZM137.679 22V13.45C137.679 12.61 137.409 11.96 136.869 11.5C136.349 11.02 135.699 10.78 134.919 10.78C134.399 10.78 133.929 10.89 133.509 11.11C133.089 11.31 132.759 11.61 132.519 12.01C132.279 12.41 132.159 12.89 132.159 13.45L130.629 12.7C130.629 11.58 130.869 10.61 131.349 9.78996C131.849 8.96996 132.519 8.33996 133.359 7.89996C134.199 7.43996 135.149 7.20996 136.209 7.20996C137.209 7.20996 138.119 7.43996 138.939 7.89996C139.759 8.33996 140.409 8.96996 140.889 9.78996C141.369 10.59 141.609 11.56 141.609 12.7V22H137.679ZM147.129 22V13.45C147.129 12.61 146.859 11.96 146.319 11.5C145.799 11.02 145.149 10.78 144.369 10.78C143.869 10.78 143.399 10.89 142.959 11.11C142.539 11.31 142.209 11.61 141.969 12.01C141.729 12.41 141.609 12.89 141.609 13.45L139.359 12.91C139.439 11.75 139.749 10.75 140.289 9.90996C140.829 9.04996 141.539 8.38996 142.419 7.92996C143.299 7.44996 144.279 7.20996 145.359 7.20996C146.439 7.20996 147.409 7.43996 148.269 7.89996C149.129 8.33996 149.809 8.97996 150.309 9.81996C150.809 10.66 151.059 11.66 151.059 12.82V22H147.129Z" fill="white"/>
<path d="M117.959 22.3001C116.499 22.3001 115.179 21.9701 113.999 21.3101C112.839 20.6301 111.909 19.7201 111.209 18.5801C110.529 17.4201 110.189 16.1301 110.189 14.7101C110.189 13.2901 110.529 12.0201 111.209 10.9001C111.889 9.76005 112.819 8.86005 113.999 8.20005C115.179 7.52005 116.489 7.18005 117.929 7.18005C119.409 7.18005 120.729 7.52005 121.889 8.20005C123.069 8.86005 123.999 9.76005 124.679 10.9001C125.359 12.0201 125.699 13.2901 125.699 14.7101C125.699 16.1301 125.359 17.4201 124.679 18.5801C123.999 19.7201 123.069 20.6301 121.889 21.3101C120.729 21.9701 119.419 22.3001 117.959 22.3001ZM117.929 18.6401C118.669 18.6401 119.319 18.4801 119.879 18.1601C120.459 17.8201 120.899 17.3601 121.199 16.7801C121.519 16.1801 121.679 15.5001 121.679 14.7401C121.679 13.9801 121.519 13.3101 121.199 12.7301C120.879 12.1501 120.439 11.7001 119.879 11.3801C119.319 11.0401 118.669 10.8701 117.929 10.8701C117.209 10.8701 116.569 11.0401 116.009 11.3801C115.449 11.7001 115.009 12.1501 114.689 12.7301C114.369 13.3101 114.209 13.9801 114.209 14.7401C114.209 15.5001 114.369 16.1801 114.689 16.7801C115.009 17.3601 115.449 17.8201 116.009 18.1601C116.569 18.4801 117.209 18.6401 117.929 18.6401Z" fill="white"/>
<path d="M100.879 22.3001C99.419 22.3001 98.099 21.9701 96.919 21.3101C95.759 20.6301 94.829 19.7201 94.129 18.5801C93.449 17.4201 93.109 16.1301 93.109 14.7101C93.109 13.2901 93.449 12.0201 94.129 10.9001C94.809 9.76005 95.739 8.86005 96.919 8.20005C98.099 7.52005 99.409 7.18005 100.849 7.18005C102.329 7.18005 103.649 7.52005 104.809 8.20005C105.989 8.86005 106.919 9.76005 107.599 10.9001C108.279 12.0201 108.619 13.2901 108.619 14.7101C108.619 16.1301 108.279 17.4201 107.599 18.5801C106.919 19.7201 105.989 20.6301 104.809 21.3101C103.649 21.9701 102.339 22.3001 100.879 22.3001ZM100.849 18.6401C101.589 18.6401 102.239 18.4801 102.799 18.1601C103.379 17.8201 103.819 17.3601 104.119 16.7801C104.439 16.1801 104.599 15.5001 104.599 14.7401C104.599 13.9801 104.439 13.3101 104.119 12.7301C103.799 12.1501 103.359 11.7001 102.799 11.3801C102.239 11.0401 101.589 10.8701 100.849 10.8701C100.129 10.8701 99.489 11.0401 98.929 11.3801C98.369 11.7001 97.929 12.1501 97.609 12.7301C97.289 13.3101 97.129 13.9801 97.129 14.7401C97.129 15.5001 97.289 16.1801 97.609 16.7801C97.929 17.3601 98.369 17.8201 98.929 18.1601C99.489 18.4801 100.129 18.6401 100.849 18.6401Z" fill="white"/>
<path d="M78.1998 22V0.910034H82.2798V22H78.1998ZM81.1998 22V18.37H91.9398V22H81.1998Z" fill="white"/>
<path d="M71.6322 22.2999C70.9122 22.2999 70.3222 22.0599 69.8622 21.5799C69.4022 21.0999 69.1722 20.5099 69.1722 19.8099C69.1722 19.1099 69.4022 18.5199 69.8622 18.0399C70.3222 17.5599 70.9122 17.3199 71.6322 17.3199C72.3322 17.3199 72.9122 17.5599 73.3722 18.0399C73.8322 18.5199 74.0622 19.1099 74.0622 19.8099C74.0622 20.5099 73.8322 21.0999 73.3722 21.5799C72.9122 22.0599 72.3322 22.2999 71.6322 22.2999Z" fill="#B8A893"/>
<path d="M59.6318 22.3001C58.1118 22.3001 56.7618 21.9801 55.5818 21.3401C54.4018 20.6801 53.4618 19.7801 52.7618 18.6401C52.0818 17.5001 51.7418 16.2001 51.7418 14.7401C51.7418 13.3001 52.0718 12.0201 52.7318 10.9001C53.4118 9.76005 54.3318 8.86005 55.4918 8.20005C56.6518 7.52005 57.9418 7.18005 59.3618 7.18005C60.7618 7.18005 61.9918 7.50005 63.0518 8.14005C64.1318 8.76005 64.9718 9.62005 65.5718 10.7201C66.1918 11.8001 66.5018 13.0301 66.5018 14.4101C66.5018 14.6701 66.4818 14.9401 66.4418 15.2201C66.4218 15.4801 66.3718 15.7801 66.2918 16.1201L54.1118 16.1501V13.2101L64.4618 13.1801L62.8718 14.4101C62.8318 13.5501 62.6718 12.8301 62.3918 12.2501C62.1318 11.6701 61.7418 11.2301 61.2218 10.9301C60.7218 10.6101 60.1018 10.4501 59.3618 10.4501C58.5818 10.4501 57.9018 10.6301 57.3218 10.9901C56.7418 11.3301 56.2918 11.8201 55.9718 12.4601C55.6718 13.0801 55.5218 13.8201 55.5218 14.6801C55.5218 15.5601 55.6818 16.3301 56.0018 16.9901C56.3418 17.6301 56.8218 18.1301 57.4418 18.4901C58.0618 18.8301 58.7818 19.0001 59.6018 19.0001C60.3418 19.0001 61.0118 18.8801 61.6118 18.6401C62.2118 18.3801 62.7318 18.0001 63.1718 17.5001L65.4818 19.8101C64.7818 20.6301 63.9218 21.2501 62.9018 21.6701C61.9018 22.0901 60.8118 22.3001 59.6318 22.3001Z" fill="white"/>
<path d="M45.2897 22.0001V0.310059H49.2197V22.0001H45.2897Z" fill="white"/>
<path d="M34.4102 22.12L28.3502 7.51001H32.6102L36.6302 18.67H35.1902L39.3602 7.51001H43.6502L37.2002 22.09L34.4102 22.12ZM30.3902 28.06L34.8002 18.73L37.2002 22.09L34.5602 28.06H30.3902Z" fill="white"/>
<path d="M20.3201 22V1.47998H24.2501V22H20.3201ZM16.9301 10.96V7.50998H27.6401V10.96H16.9301Z" fill="white"/>
<path d="M7.65 22.3C5.95 22.3 4.49 22.01 3.27 21.43C2.07 20.85 0.98 19.98 0 18.82L2.7 16.12C3.32 16.94 4.04 17.58 4.86 18.04C5.68 18.48 6.68 18.7 7.86 18.7C8.92 18.7 9.76 18.49 10.38 18.07C11.02 17.65 11.34 17.07 11.34 16.33C11.34 15.69 11.16 15.17 10.8 14.77C10.44 14.37 9.96 14.03 9.36 13.75C8.78 13.47 8.13 13.22 7.41 13C6.71 12.76 6 12.49 5.28 12.19C4.58 11.89 3.93 11.52 3.33 11.08C2.75 10.62 2.28 10.04 1.92 9.33996C1.56 8.61996 1.38 7.71996 1.38 6.63996C1.38 5.35996 1.69 4.26996 2.31 3.36996C2.93 2.46996 3.78 1.77996 4.86 1.29996C5.94 0.819956 7.16 0.579956 8.52 0.579956C9.96 0.579956 11.26 0.849956 12.42 1.38996C13.58 1.92996 14.53 2.62996 15.27 3.48996L12.57 6.18996C11.95 5.50996 11.31 5.00996 10.65 4.68996C10.01 4.36996 9.28 4.20996 8.46 4.20996C7.52 4.20996 6.78 4.38996 6.24 4.74996C5.7 5.10996 5.43 5.62996 5.43 6.30996C5.43 6.88996 5.61 7.35996 5.97 7.71996C6.33 8.07996 6.8 8.38996 7.38 8.64996C7.98 8.90996 8.63 9.15996 9.33 9.39996C10.05 9.63996 10.76 9.90996 11.46 10.21C12.18 10.51 12.83 10.9 13.41 11.38C14.01 11.86 14.49 12.48 14.85 13.24C15.21 13.98 15.39 14.9 15.39 16C15.39 17.96 14.7 19.5 13.32 20.62C11.94 21.74 10.05 22.3 7.65 22.3Z" fill="white"/>
</svg>
